<?xml version="1.0" encoding="UTF-8" standalone="no"?>
<!DOCTYPE svg PUBLIC "-//W3C//DTD SVG 1.1//EN"
 "http://www.w3.org/Graphics/SVG/1.1/DTD/svg11.dtd">
<!-- Generated by graphviz version 2.50.0 (0)
 -->
<!-- Pages: 1 -->
<svg width="3363pt" height="188pt"
 viewBox="0.00 0.00 3363.20 188.00" xmlns="http://www.w3.org/2000/svg" xmlns:xlink="http://www.w3.org/1999/xlink">
<g id="graph0" class="graph" transform="scale(1 1) rotate(0) translate(4 184)">
<polygon fill="white" stroke="transparent" points="-4,4 -4,-184 3359.2,-184 3359.2,4 -4,4"/>
<!-- red0 -->
<g id="node1" class="node">
<title>red0</title>
<ellipse fill="red" stroke="black" cx="18" cy="-18" rx="18" ry="18"/>
</g>
<!-- green0 -->
<g id="node2" class="node">
<title>green0</title>
<ellipse fill="green" stroke="black" cx="18" cy="-90" rx="18" ry="18"/>
</g>
<!-- red0&#45;&gt;green0 -->
<g id="edge1" class="edge">
<title>red0&#45;&gt;green0</title>
<path fill="none" stroke="black" stroke-width="10" d="M18,-36.17C18,-47 18,-60.71 18,-71.59"/>
</g>
<!-- blue0 -->
<g id="node3" class="node">
<title>blue0</title>
<ellipse fill="blue" stroke="black" cx="25.2" cy="-162" rx="18" ry="18"/>
</g>
<!-- green0&#45;&gt;blue0 -->
<g id="edge2" class="edge">
<title>green0&#45;&gt;blue0</title>
<path fill="none" stroke="black" stroke-width="10" d="M19.82,-108.17C20.92,-119.17 22.31,-133.14 23.41,-144.09"/>
</g>
<!-- red1 -->
<g id="node4" class="node">
<title>red1</title>
<ellipse fill="red" stroke="black" cx="75.6" cy="-18" rx="18" ry="18"/>
</g>
<!-- green1 -->
<g id="node5" class="node">
<title>green1</title>
<ellipse fill="green" stroke="black" cx="75.6" cy="-90" rx="18" ry="18"/>
</g>
<!-- red1&#45;&gt;green1 -->
<g id="edge3" class="edge">
<title>red1&#45;&gt;green1</title>
<path fill="none" stroke="black" stroke-width="10" d="M75.6,-36.17C75.6,-47 75.6,-60.71 75.6,-71.59"/>
</g>
<!-- blue1 -->
<g id="node6" class="node">
<title>blue1</title>
<ellipse fill="blue" stroke="black" cx="90" cy="-162" rx="18" ry="18"/>
</g>
<!-- green1&#45;&gt;blue1 -->
<g id="edge4" class="edge">
<title>green1&#45;&gt;blue1</title>
<path fill="none" stroke="black" stroke-width="10" d="M79.16,-107.8C81.37,-118.87 84.21,-133.07 86.43,-144.16"/>
</g>
<!-- red2 -->
<g id="node7" class="node">
<title>red2</title>
<ellipse fill="red" stroke="black" cx="176.4" cy="-18" rx="18" ry="18"/>
</g>
<!-- green2 -->
<g id="node8" class="node">
<title>green2</title>
<ellipse fill="green" stroke="black" cx="176.4" cy="-90" rx="18" ry="18"/>
</g>
<!-- red2&#45;&gt;green2 -->
<g id="edge5" class="edge">
<title>red2&#45;&gt;green2</title>
<path fill="none" stroke="black" stroke-width="10" d="M176.4,-36.17C176.4,-47 176.4,-60.71 176.4,-71.59"/>
</g>
<!-- blue2 -->
<g id="node9" class="node">
<title>blue2</title>
<ellipse fill="blue" stroke="black" cx="147.6" cy="-162" rx="18" ry="18"/>
</g>
<!-- green2&#45;&gt;blue2 -->
<g id="edge6" class="edge">
<title>green2&#45;&gt;blue2</title>
<path fill="none" stroke="black" stroke-width="10" d="M169.57,-107.06C164.98,-118.54 158.96,-133.61 154.38,-145.06"/>
</g>
<!-- red3 -->
<g id="node10" class="node">
<title>red3</title>
<ellipse fill="red" stroke="black" cx="234" cy="-18" rx="18" ry="18"/>
</g>
<!-- green3 -->
<g id="node11" class="node">
<title>green3</title>
<ellipse fill="green" stroke="black" cx="234" cy="-90" rx="18" ry="18"/>
</g>
<!-- red3&#45;&gt;green3 -->
<g id="edge7" class="edge">
<title>red3&#45;&gt;green3</title>
<path fill="none" stroke="black" stroke-width="10" d="M234,-36.17C234,-47 234,-60.71 234,-71.59"/>
</g>
<!-- blue3 -->
<g id="node12" class="node">
<title>blue3</title>
<ellipse fill="blue" stroke="black" cx="241.2" cy="-162" rx="18" ry="18"/>
</g>
<!-- green3&#45;&gt;blue3 -->
<g id="edge8" class="edge">
<title>green3&#45;&gt;blue3</title>
<path fill="none" stroke="black" stroke-width="10" d="M235.82,-108.17C236.92,-119.17 238.31,-133.14 239.41,-144.09"/>
</g>
<!-- red4 -->
<g id="node13" class="node">
<title>red4</title>
<ellipse fill="red" stroke="black" cx="313.2" cy="-18" rx="18" ry="18"/>
</g>
<!-- green4 -->
<g id="node14" class="node">
<title>green4</title>
<ellipse fill="green" stroke="black" cx="313.2" cy="-90" rx="18" ry="18"/>
</g>
<!-- red4&#45;&gt;green4 -->
<g id="edge9" class="edge">
<title>red4&#45;&gt;green4</title>
<path fill="none" stroke="black" stroke-width="10" d="M313.2,-36.17C313.2,-47 313.2,-60.71 313.2,-71.59"/>
</g>
<!-- blue4 -->
<g id="node15" class="node">
<title>blue4</title>
<ellipse fill="blue" stroke="black" cx="291.6" cy="-162" rx="18" ry="18"/>
</g>
<!-- green4&#45;&gt;blue4 -->
<g id="edge10" class="edge">
<title>green4&#45;&gt;blue4</title>
<path fill="none" stroke="black" stroke-width="10" d="M307.97,-107.43C304.58,-118.75 300.17,-133.44 296.78,-144.73"/>
</g>
<!-- red5 -->
<g id="node16" class="node">
<title>red5</title>
<ellipse fill="red" stroke="black" cx="392.4" cy="-18" rx="18" ry="18"/>
</g>
<!-- green5 -->
<g id="node17" class="node">
<title>green5</title>
<ellipse fill="green" stroke="black" cx="392.4" cy="-90" rx="18" ry="18"/>
</g>
<!-- red5&#45;&gt;green5 -->
<g id="edge11" class="edge">
<title>red5&#45;&gt;green5</title>
<path fill="none" stroke="black" stroke-width="10" d="M392.4,-36.17C392.4,-47 392.4,-60.71 392.4,-71.59"/>
</g>
<!-- blue5 -->
<g id="node18" class="node">
<title>blue5</title>
<ellipse fill="blue" stroke="black" cx="370.8" cy="-162" rx="18" ry="18"/>
</g>
<!-- green5&#45;&gt;blue5 -->
<g id="edge12" class="edge">
<title>green5&#45;&gt;blue5</title>
<path fill="none" stroke="black" stroke-width="10" d="M387.17,-107.43C383.78,-118.75 379.37,-133.44 375.98,-144.73"/>
</g>
<!-- green6 -->
<g id="node19" class="node">
<title>green6</title>
<ellipse fill="green" stroke="black" cx="442.8" cy="-90" rx="18" ry="18"/>
</g>
<!-- blue6 -->
<g id="node20" class="node">
<title>blue6</title>
<ellipse fill="blue" stroke="black" cx="457.2" cy="-162" rx="18" ry="18"/>
</g>
<!-- red7 -->
<g id="node21" class="node">
<title>red7</title>
<ellipse fill="red" stroke="black" cx="514.8" cy="-18" rx="18" ry="18"/>
</g>
<!-- green7 -->
<g id="node22" class="node">
<title>green7</title>
<ellipse fill="green" stroke="black" cx="529.2" cy="-90" rx="18" ry="18"/>
</g>
<!-- red7&#45;&gt;green7 -->
<g id="edge13" class="edge">
<title>red7&#45;&gt;green7</title>
<path fill="none" stroke="black" stroke-width="10" d="M518.36,-35.8C520.57,-46.87 523.41,-61.07 525.63,-72.16"/>
</g>
<!-- blue7 -->
<g id="node23" class="node">
<title>blue7</title>
<ellipse fill="blue" stroke="black" cx="507.6" cy="-162" rx="18" ry="18"/>
</g>
<!-- green7&#45;&gt;blue7 -->
<g id="edge14" class="edge">
<title>green7&#45;&gt;blue7</title>
<path fill="none" stroke="black" stroke-width="10" d="M523.97,-107.43C520.58,-118.75 516.17,-133.44 512.78,-144.73"/>
</g>
<!-- red8 -->
<g id="node24" class="node">
<title>red8</title>
<ellipse fill="red" stroke="black" cx="586.8" cy="-18" rx="18" ry="18"/>
</g>
<!-- blue8 -->
<g id="node25" class="node">
<title>blue8</title>
<ellipse fill="blue" stroke="black" cx="608.4" cy="-162" rx="18" ry="18"/>
</g>
<!-- red9 -->
<g id="node26" class="node">
<title>red9</title>
<ellipse fill="red" stroke="black" cx="680.4" cy="-18" rx="18" ry="18"/>
</g>
<!-- green9 -->
<g id="node27" class="node">
<title>green9</title>
<ellipse fill="green" stroke="black" cx="673.2" cy="-90" rx="18" ry="18"/>
</g>
<!-- red10 -->
<g id="node28" class="node">
<title>red10</title>
<ellipse fill="red" stroke="black" cx="738" cy="-18" rx="18" ry="18"/>
</g>
<!-- blue10 -->
<g id="node29" class="node">
<title>blue10</title>
<ellipse fill="blue" stroke="black" cx="745.2" cy="-162" rx="18" ry="18"/>
</g>
<!-- red11 -->
<g id="node30" class="node">
<title>red11</title>
<ellipse fill="red" stroke="black" cx="817.2" cy="-18" rx="18" ry="18"/>
</g>
<!-- green11 -->
<g id="node31" class="node">
<title>green11</title>
<ellipse fill="green" stroke="black" cx="817.2" cy="-90" rx="18" ry="18"/>
</g>
<!-- red11&#45;&gt;green11 -->
<g id="edge15" class="edge">
<title>red11&#45;&gt;green11</title>
<path fill="none" stroke="black" stroke-width="10" d="M817.2,-36.17C817.2,-47 817.2,-60.71 817.2,-71.59"/>
</g>
<!-- blue11 -->
<g id="node32" class="node">
<title>blue11</title>
<ellipse fill="blue" stroke="black" cx="810" cy="-162" rx="18" ry="18"/>
</g>
<!-- green11&#45;&gt;blue11 -->
<g id="edge16" class="edge">
<title>green11&#45;&gt;blue11</title>
<path fill="none" stroke="black" stroke-width="10" d="M815.38,-108.17C814.28,-119.17 812.89,-133.14 811.79,-144.09"/>
</g>
<!-- red12 -->
<g id="node33" class="node">
<title>red12</title>
<ellipse fill="red" stroke="black" cx="896.4" cy="-18" rx="18" ry="18"/>
</g>
<!-- blue12 -->
<g id="node34" class="node">
<title>blue12</title>
<ellipse fill="blue" stroke="black" cx="882" cy="-162" rx="18" ry="18"/>
</g>
<!-- red13 -->
<g id="node35" class="node">
<title>red13</title>
<ellipse fill="red" stroke="black" cx="939.6" cy="-18" rx="18" ry="18"/>
</g>
<!-- green13 -->
<g id="node36" class="node">
<title>green13</title>
<ellipse fill="green" stroke="black" cx="968.4" cy="-90" rx="18" ry="18"/>
</g>
<!-- red13&#45;&gt;green13 -->
<g id="edge17" class="edge">
<title>red13&#45;&gt;green13</title>
<path fill="none" stroke="black" stroke-width="10" d="M946.43,-35.06C951.02,-46.54 957.04,-61.61 961.62,-73.06"/>
</g>
<!-- blue13 -->
<g id="node37" class="node">
<title>blue13</title>
<ellipse fill="blue" stroke="black" cx="946.8" cy="-162" rx="18" ry="18"/>
</g>
<!-- green13&#45;&gt;blue13 -->
<g id="edge18" class="edge">
<title>green13&#45;&gt;blue13</title>
<path fill="none" stroke="black" stroke-width="10" d="M963.17,-107.43C959.78,-118.75 955.37,-133.44 951.98,-144.73"/>
</g>
<!-- red14 -->
<g id="node38" class="node">
<title>red14</title>
<ellipse fill="red" stroke="black" cx="1026" cy="-18" rx="18" ry="18"/>
</g>
<!-- blue14 -->
<g id="node39" class="node">
<title>blue14</title>
<ellipse fill="blue" stroke="black" cx="1011.6" cy="-162" rx="18" ry="18"/>
</g>
<!-- green15 -->
<g id="node40" class="node">
<title>green15</title>
<ellipse fill="green" stroke="black" cx="1090.8" cy="-90" rx="18" ry="18"/>
</g>
<!-- blue15 -->
<g id="node41" class="node">
<title>blue15</title>
<ellipse fill="blue" stroke="black" cx="1083.6" cy="-162" rx="18" ry="18"/>
</g>
<!-- red16 -->
<g id="node42" class="node">
<title>red16</title>
<ellipse fill="red" stroke="black" cx="1162.8" cy="-18" rx="18" ry="18"/>
</g>
<!-- green16 -->
<g id="node43" class="node">
<title>green16</title>
<ellipse fill="green" stroke="black" cx="1162.8" cy="-90" rx="18" ry="18"/>
</g>
<!-- red16&#45;&gt;green16 -->
<g id="edge19" class="edge">
<title>red16&#45;&gt;green16</title>
<path fill="none" stroke="black" stroke-width="10" d="M1162.8,-36.17C1162.8,-47 1162.8,-60.71 1162.8,-71.59"/>
</g>
<!-- blue16 -->
<g id="node44" class="node">
<title>blue16</title>
<ellipse fill="blue" stroke="black" cx="1177.2" cy="-162" rx="18" ry="18"/>
</g>
<!-- green16&#45;&gt;blue16 -->
<g id="edge20" class="edge">
<title>green16&#45;&gt;blue16</title>
<path fill="none" stroke="black" stroke-width="10" d="M1166.36,-107.8C1168.57,-118.87 1171.41,-133.07 1173.63,-144.16"/>
</g>
<!-- red19 -->
<g id="node45" class="node">
<title>red19</title>
<ellipse fill="red" stroke="black" cx="1393.2" cy="-18" rx="18" ry="18"/>
</g>
<!-- green19 -->
<g id="node46" class="node">
<title>green19</title>
<ellipse fill="green" stroke="black" cx="1371.6" cy="-90" rx="18" ry="18"/>
</g>
<!-- red19&#45;&gt;green19 -->
<g id="edge21" class="edge">
<title>red19&#45;&gt;green19</title>
<path fill="none" stroke="black" stroke-width="10" d="M1387.97,-35.43C1384.58,-46.75 1380.17,-61.44 1376.78,-72.73"/>
</g>
<!-- blue19 -->
<g id="node47" class="node">
<title>blue19</title>
<ellipse fill="blue" stroke="black" cx="1378.8" cy="-162" rx="18" ry="18"/>
</g>
<!-- green19&#45;&gt;blue19 -->
<g id="edge22" class="edge">
<title>green19&#45;&gt;blue19</title>
<path fill="none" stroke="black" stroke-width="10" d="M1373.42,-108.17C1374.52,-119.17 1375.91,-133.14 1377.01,-144.09"/>
</g>
<!-- red22 -->
<g id="node48" class="node">
<title>red22</title>
<ellipse fill="red" stroke="black" cx="1602" cy="-18" rx="18" ry="18"/>
</g>
<!-- green22 -->
<g id="node49" class="node">
<title>green22</title>
<ellipse fill="green" stroke="black" cx="1594.8" cy="-90" rx="18" ry="18"/>
</g>
<!-- red22&#45;&gt;green22 -->
<g id="edge23" class="edge">
<title>red22&#45;&gt;green22</title>
<path fill="none" stroke="black" stroke-width="10" d="M1600.18,-36.17C1599.08,-47.17 1597.69,-61.14 1596.59,-72.09"/>
</g>
<!-- blue22 -->
<g id="node50" class="node">
<title>blue22</title>
<ellipse fill="blue" stroke="black" cx="1616.4" cy="-162" rx="18" ry="18"/>
</g>
<!-- green22&#45;&gt;blue22 -->
<g id="edge24" class="edge">
<title>green22&#45;&gt;blue22</title>
<path fill="none" stroke="black" stroke-width="10" d="M1600.03,-107.43C1603.42,-118.75 1607.83,-133.44 1611.22,-144.73"/>
</g>
<!-- red25 -->
<g id="node51" class="node">
<title>red25</title>
<ellipse fill="red" stroke="black" cx="1803.6" cy="-18" rx="18" ry="18"/>
</g>
<!-- green25 -->
<g id="node52" class="node">
<title>green25</title>
<ellipse fill="green" stroke="black" cx="1825.2" cy="-90" rx="18" ry="18"/>
</g>
<!-- red25&#45;&gt;green25 -->
<g id="edge25" class="edge">
<title>red25&#45;&gt;green25</title>
<path fill="none" stroke="black" stroke-width="10" d="M1808.83,-35.43C1812.22,-46.75 1816.63,-61.44 1820.02,-72.73"/>
</g>
<!-- blue25 -->
<g id="node53" class="node">
<title>blue25</title>
<ellipse fill="blue" stroke="black" cx="1818" cy="-162" rx="18" ry="18"/>
</g>
<!-- green25&#45;&gt;blue25 -->
<g id="edge26" class="edge">
<title>green25&#45;&gt;blue25</title>
<path fill="none" stroke="black" stroke-width="10" d="M1823.38,-108.17C1822.28,-119.17 1820.89,-133.14 1819.79,-144.09"/>
</g>
<!-- red26 -->
<g id="node54" class="node">
<title>red26</title>
<ellipse fill="red" stroke="black" cx="1875.6" cy="-18" rx="18" ry="18"/>
</g>
<!-- red27 -->
<g id="node55" class="node">
<title>red27</title>
<ellipse fill="red" stroke="black" cx="1962" cy="-18" rx="18" ry="18"/>
</g>
<!-- blue27 -->
<g id="node56" class="node">
<title>blue27</title>
<ellipse fill="blue" stroke="black" cx="1969.2" cy="-162" rx="18" ry="18"/>
</g>
<!-- red28 -->
<g id="node57" class="node">
<title>red28</title>
<ellipse fill="red" stroke="black" cx="2019.6" cy="-18" rx="18" ry="18"/>
</g>
<!-- green28 -->
<g id="node58" class="node">
<title>green28</title>
<ellipse fill="green" stroke="black" cx="2019.6" cy="-90" rx="18" ry="18"/>
</g>
<!-- red29 -->
<g id="node59" class="node">
<title>red29</title>
<ellipse fill="red" stroke="black" cx="2113.2" cy="-18" rx="18" ry="18"/>
</g>
<!-- blue29 -->
<g id="node60" class="node">
<title>blue29</title>
<ellipse fill="blue" stroke="black" cx="2098.8" cy="-162" rx="18" ry="18"/>
</g>
<!-- red30 -->
<g id="node61" class="node">
<title>red30</title>
<ellipse fill="red" stroke="black" cx="2170.8" cy="-18" rx="18" ry="18"/>
</g>
<!-- red31 -->
<g id="node62" class="node">
<title>red31</title>
<ellipse fill="red" stroke="black" cx="2264.4" cy="-18" rx="18" ry="18"/>
</g>
<!-- green31 -->
<g id="node63" class="node">
<title>green31</title>
<ellipse fill="green" stroke="black" cx="2264.4" cy="-90" rx="18" ry="18"/>
</g>
<!-- red31&#45;&gt;green31 -->
<g id="edge27" class="edge">
<title>red31&#45;&gt;green31</title>
<path fill="none" stroke="black" stroke-width="10" d="M2264.4,-36.17C2264.4,-47 2264.4,-60.71 2264.4,-71.59"/>
</g>
<!-- blue31 -->
<g id="node64" class="node">
<title>blue31</title>
<ellipse fill="blue" stroke="black" cx="2235.6" cy="-162" rx="18" ry="18"/>
</g>
<!-- green31&#45;&gt;blue31 -->
<g id="edge28" class="edge">
<title>green31&#45;&gt;blue31</title>
<path fill="none" stroke="black" stroke-width="10" d="M2257.57,-107.06C2252.98,-118.54 2246.96,-133.61 2242.38,-145.06"/>
</g>
<!-- red32 -->
<g id="node65" class="node">
<title>red32</title>
<ellipse fill="red" stroke="black" cx="2307.6" cy="-18" rx="18" ry="18"/>
</g>
<!-- red33 -->
<g id="node66" class="node">
<title>red33</title>
<ellipse fill="red" stroke="black" cx="2401.2" cy="-18" rx="18" ry="18"/>
</g>
<!-- blue33 -->
<g id="node67" class="node">
<title>blue33</title>
<ellipse fill="blue" stroke="black" cx="2386.8" cy="-162" rx="18" ry="18"/>
</g>
<!-- red34 -->
<g id="node68" class="node">
<title>red34</title>
<ellipse fill="red" stroke="black" cx="2466" cy="-18" rx="18" ry="18"/>
</g>
<!-- green34 -->
<g id="node69" class="node">
<title>green34</title>
<ellipse fill="green" stroke="black" cx="2458.8" cy="-90" rx="18" ry="18"/>
</g>
<!-- red35 -->
<g id="node70" class="node">
<title>red35</title>
<ellipse fill="red" stroke="black" cx="2523.6" cy="-18" rx="18" ry="18"/>
</g>
<!-- blue35 -->
<g id="node71" class="node">
<title>blue35</title>
<ellipse fill="blue" stroke="black" cx="2538" cy="-162" rx="18" ry="18"/>
</g>
<!-- red36 -->
<g id="node72" class="node">
<title>red36</title>
<ellipse fill="red" stroke="black" cx="2610" cy="-18" rx="18" ry="18"/>
</g>
<!-- red37 -->
<g id="node73" class="node">
<title>red37</title>
<ellipse fill="red" stroke="black" cx="2696.4" cy="-18" rx="18" ry="18"/>
</g>
<!-- green37 -->
<g id="node74" class="node">
<title>green37</title>
<ellipse fill="green" stroke="black" cx="2667.6" cy="-90" rx="18" ry="18"/>
</g>
<!-- red37&#45;&gt;green37 -->
<g id="edge29" class="edge">
<title>red37&#45;&gt;green37</title>
<path fill="none" stroke="black" stroke-width="10" d="M2689.57,-35.06C2684.98,-46.54 2678.96,-61.61 2674.38,-73.06"/>
</g>
<!-- blue37 -->
<g id="node75" class="node">
<title>blue37</title>
<ellipse fill="blue" stroke="black" cx="2667.6" cy="-162" rx="18" ry="18"/>
</g>
<!-- green37&#45;&gt;blue37 -->
<g id="edge30" class="edge">
<title>green37&#45;&gt;blue37</title>
<path fill="none" stroke="black" stroke-width="10" d="M2667.6,-108.17C2667.6,-119 2667.6,-132.71 2667.6,-143.59"/>
</g>
<!-- red38 -->
<g id="node76" class="node">
<title>red38</title>
<ellipse fill="red" stroke="black" cx="2768.4" cy="-18" rx="18" ry="18"/>
</g>
<!-- red39 -->
<g id="node77" class="node">
<title>red39</title>
<ellipse fill="red" stroke="black" cx="2833.2" cy="-18" rx="18" ry="18"/>
</g>
<!-- blue39 -->
<g id="node78" class="node">
<title>blue39</title>
<ellipse fill="blue" stroke="black" cx="2833.2" cy="-162" rx="18" ry="18"/>
</g>
<!-- red40 -->
<g id="node79" class="node">
<title>red40</title>
<ellipse fill="red" stroke="black" cx="2898" cy="-18" rx="18" ry="18"/>
</g>
<!-- green40 -->
<g id="node80" class="node">
<title>green40</title>
<ellipse fill="green" stroke="black" cx="2905.2" cy="-90" rx="18" ry="18"/>
</g>
<!-- red41 -->
<g id="node81" class="node">
<title>red41</title>
<ellipse fill="red" stroke="black" cx="2955.6" cy="-18" rx="18" ry="18"/>
</g>
<!-- blue41 -->
<g id="node82" class="node">
<title>blue41</title>
<ellipse fill="blue" stroke="black" cx="2970" cy="-162" rx="18" ry="18"/>
</g>
<!-- red42 -->
<g id="node83" class="node">
<title>red42</title>
<ellipse fill="red" stroke="black" cx="3049.2" cy="-18" rx="18" ry="18"/>
</g>
<!-- red43 -->
<g id="node84" class="node">
<title>red43</title>
<ellipse fill="red" stroke="black" cx="3121.2" cy="-18" rx="18" ry="18"/>
</g>
<!-- green43 -->
<g id="node85" class="node">
<title>green43</title>
<ellipse fill="green" stroke="black" cx="3106.8" cy="-90" rx="18" ry="18"/>
</g>
<!-- red43&#45;&gt;green43 -->
<g id="edge31" class="edge">
<title>red43&#45;&gt;green43</title>
<path fill="none" stroke="black" stroke-width="10" d="M3117.64,-35.8C3115.43,-46.87 3112.59,-61.07 3110.37,-72.16"/>
</g>
<!-- blue43 -->
<g id="node86" class="node">
<title>blue43</title>
<ellipse fill="blue" stroke="black" cx="3099.6" cy="-162" rx="18" ry="18"/>
</g>
<!-- green43&#45;&gt;blue43 -->
<g id="edge32" class="edge">
<title>green43&#45;&gt;blue43</title>
<path fill="none" stroke="black" stroke-width="10" d="M3104.98,-108.17C3103.88,-119.17 3102.49,-133.14 3101.39,-144.09"/>
</g>
<!-- red44 -->
<g id="node87" class="node">
<title>red44</title>
<ellipse fill="red" stroke="black" cx="3178.8" cy="-18" rx="18" ry="18"/>
</g>
<!-- red45 -->
<g id="node88" class="node">
<title>red45</title>
<ellipse fill="red" stroke="black" cx="3265.2" cy="-18" rx="18" ry="18"/>
</g>
<!-- blue45 -->
<g id="node89" class="node">
<title>blue45</title>
<ellipse fill="blue" stroke="black" cx="3258" cy="-162" rx="18" ry="18"/>
</g>
<!-- red46 -->
<g id="node90" class="node">
<title>red46</title>
<ellipse fill="red" stroke="black" cx="3315.6" cy="-18" rx="18" ry="18"/>
</g>
<!-- green46 -->
<g id="node91" class="node">
<title>green46</title>
<ellipse fill="green" stroke="black" cx="3337.2" cy="-90" rx="18" ry="18"/>
</g>
</g>
</svg>
