<?xml version="1.0" encoding="UTF-8" standalone="no"?>
<svg
   xmlns:dc="http://purl.org/dc/elements/1.1/"
   xmlns:cc="http://creativecommons.org/ns#"
   xmlns:rdf="http://www.w3.org/1999/02/22-rdf-syntax-ns#"
   xmlns:svg="http://www.w3.org/2000/svg"
   xmlns="http://www.w3.org/2000/svg"
   xmlns:sodipodi="http://sodipodi.sourceforge.net/DTD/sodipodi-0.dtd"
   xmlns:inkscape="http://www.inkscape.org/namespaces/inkscape"
   version="1.1"
   viewBox="0 0 201.28159 46.576908"
   stroke-miterlimit="10"
   id="svg2"
   inkscape:version="0.91 r13725"
   sodipodi:docname="logo.svg"
   width="201.28159"
   height="46.576908"
   style="fill:none;stroke:none;stroke-linecap:square;stroke-miterlimit:10">
  <metadata
     id="metadata25">
    <rdf:RDF>
      <cc:Work
         rdf:about="">
        <dc:format>image/svg+xml</dc:format>
        <dc:type
           rdf:resource="http://purl.org/dc/dcmitype/StillImage" />
      </cc:Work>
    </rdf:RDF>
  </metadata>
  <sodipodi:namedview
     pagecolor="#ffffff"
     bordercolor="#666666"
     borderopacity="1"
     objecttolerance="10"
     gridtolerance="10"
     guidetolerance="10"
     inkscape:pageopacity="0"
     inkscape:pageshadow="2"
     inkscape:window-width="3840"
     inkscape:window-height="2081"
     id="namedview23"
     showgrid="false"
     inkscape:snap-bbox="true"
     inkscape:bbox-paths="true"
     inkscape:bbox-nodes="true"
     inkscape:snap-bbox-edge-midpoints="true"
     inkscape:snap-bbox-midpoints="true"
     inkscape:object-paths="true"
     inkscape:snap-intersection-paths="true"
     inkscape:object-nodes="true"
     inkscape:snap-smooth-nodes="true"
     inkscape:snap-midpoints="true"
     inkscape:snap-object-midpoints="true"
     inkscape:snap-center="true"
     inkscape:snap-text-baseline="true"
     inkscape:zoom="28.553849"
     inkscape:cx="137.30428"
     inkscape:cy="28.95435"
     inkscape:window-x="3840"
     inkscape:window-y="0"
     inkscape:window-maximized="1"
     inkscape:current-layer="svg2" />
  <defs
     id="defs21" />
  <path
     style="fill:#1700b3;fill-opacity:1;fill-rule:nonzero;stroke:#1700b3;stroke-width:0;stroke-linejoin:round;stroke-miterlimit:10;stroke-dasharray:none;stroke-opacity:1"
     d="m 24.609387,6.9999999e-6 8.640625,0 0,24.4687520000001 c 0,3.364583 -0.760417,5.807292 -2.28125,7.328125 -1.520833,1.520833 -3.963542,1.796871 -7.328125,1.796871 l -11.03125,0 c -3.3645831,0 -5.8072921,-0.276038 -7.3281251,-1.796871 -1.520833,-1.520833 -2.28125,-3.963542 -2.28125,-7.328125 l 0,-24.4687520000001 8.6406251,0 0,24.4687520000001 c 0,1.927083 0.963542,2.890625 2.890625,2.890625 l 7.1875,0 c 1.927083,0 2.890625,-0.963542 2.890625,-2.890625 z"
     id="path4186"
     inkscape:connector-curvature="0"
     sodipodi:nodetypes="ccssssssccssssc" />
  <path
     style="fill:#1700b3;fill-opacity:1;fill-rule:nonzero;stroke:#1700b3;stroke-width:0;stroke-linejoin:round;stroke-miterlimit:10;stroke-dasharray:none;stroke-opacity:1"
     d="M 48.359387,4.9999999e-6 35.640637,33.593755 l 9.359375,0 2.171875,-6 12,0 2.15625,6 9.359375,0 L 57.968762,4.9999999e-6 l -9.609375,0 z M 53.171887,10.07813 l 3.828125,11.28125 -7.671875,0 3.84375,-11.28125 z"
     id="path4184"
     inkscape:connector-curvature="0" />
  <path
     style="fill:#1700b3;fill-opacity:1;fill-rule:nonzero;stroke:#1700b3;stroke-width:0;stroke-linejoin:round;stroke-miterlimit:10;stroke-dasharray:none;stroke-opacity:1"
     d="M 83.222091,23.515632 91.378338,4.9999999e-6 l 9.359372,0 L 88.018971,33.593755 l -9.60939,0 L 65.690831,4.9999999e-6 l 9.35938,0 L 83.222091,23.515632 Z"
     id="path4180"
     inkscape:connector-curvature="0" />
  <path
     style="fill:#1700b3;fill-opacity:1;fill-rule:nonzero;stroke:#1700b3;stroke-width:0;stroke-linejoin:round;stroke-miterlimit:10;stroke-dasharray:none;stroke-opacity:1"
     d="m 129.11268,33.593755 -17.85937,0 c -3.13542,0 -5.33334,-0.249995 -6.81251,-1.718745 -1.46875,-1.479167 -2.20312,-3.786458 -2.20312,-6.921875 l 0,-15.359375 c 0,-3.364585 0.76042,-5.802085 2.28125,-7.312502 1.52083,-1.520836 3.95833,-2.2812530000001 7.3125,-2.2812530000001 l 17.28125,0 10e-6,6.2343688000001 -15.35939,-1.2e-6 c -1.91667,-1e-7 -2.89723,0.973958 -2.89476,2.8906245 l 0.0197,15.3437529 c 0,1.631635 1.48108,2.890624 2.87506,2.890624 8.92799,0.04021 8.3492,0.04819 15.35932,1.1e-5 z"
     id="path4178"
     inkscape:connector-curvature="0"
     sodipodi:nodetypes="cscsscsccsscccc" />
  <path
     style="fill:#1700b3;fill-opacity:1;fill-rule:nonzero;stroke:#1700b3;stroke-width:0;stroke-linejoin:round;stroke-miterlimit:10;stroke-dasharray:none;stroke-opacity:1"
     d="M 144.27931,4.9999999e-6 131.56056,33.593755 l 9.35937,0 2.17188,-6 12,0 2.15625,6 9.35937,0 L 153.88868,4.9999999e-6 l -9.60937,0 z M 149.09181,10.07813 l 3.82812,11.28125 -7.67187,0 3.84375,-11.28125 z"
     id="path4176"
     inkscape:connector-curvature="0" />
  <path
     style="fill:#1700b3;fill-opacity:1;fill-rule:nonzero;stroke:#1700b3;stroke-width:0;stroke-linejoin:round;stroke-miterlimit:10;stroke-dasharray:none;stroke-opacity:1"
     d="m 198.28157,33.593757 -9.10937,0 -11.53125,-20.15625 0,20.15625 -8.64063,0 0,-33.5937500000001 9.125,0 L 189.64095,20.156259 l 0,-20.1562520000001 8.64062,0 0,33.5937500000001 z"
     id="path13"
     inkscape:connector-curvature="0" />
  <path
     style="fill:#1700b3;fill-opacity:1;fill-rule:evenodd;stroke:#1700b3;stroke-width:0;stroke-linecap:butt;stroke-linejoin:miter;stroke-miterlimit:10;stroke-dasharray:none;stroke-opacity:1"
     d="M 1.2071059e-5,44.076903 3.0000121,41.0769 l 198.2815679,0 -3,3 z"
     id="path4514"
     inkscape:connector-curvature="0"
     sodipodi:nodetypes="ccccc" />
  <path
     style="fill:#1700b3;fill-opacity:1;fill-rule:evenodd;stroke:#1700b3;stroke-width:2;stroke-linecap:butt;stroke-linejoin:miter;stroke-miterlimit:10;stroke-dasharray:none;stroke-opacity:1"
     d="m 18.125012,33.593755 0,8.983147"
     id="path4518"
     inkscape:connector-curvature="0" />
  <path
     style="fill:#1700b3;fill-opacity:1;fill-rule:evenodd;stroke:#1700b3;stroke-width:2;stroke-linecap:butt;stroke-linejoin:miter;stroke-miterlimit:10;stroke-dasharray:none;stroke-opacity:1"
     d="m 40.320324,33.593755 0,8.983147"
     id="path4518-3"
     inkscape:connector-curvature="0" />
  <path
     style="fill:#1700b3;fill-opacity:1;fill-rule:evenodd;stroke:#1700b3;stroke-width:2;stroke-linecap:butt;stroke-linejoin:miter;stroke-miterlimit:10;stroke-dasharray:none;stroke-opacity:1"
     d="m 83.214276,33.593755 0,8.983147"
     id="path4518-3-4"
     inkscape:connector-curvature="0" />
  <path
     style="fill:#1700b3;fill-opacity:1;fill-rule:evenodd;stroke:#1700b3;stroke-width:2;stroke-linecap:butt;stroke-linejoin:miter;stroke-miterlimit:10;stroke-dasharray:none;stroke-opacity:1"
     d="m 117.50001,33.593755 0,8.983147"
     id="path4518-3-8"
     inkscape:connector-curvature="0" />
  <path
     style="fill:#1700b3;fill-opacity:1;fill-rule:evenodd;stroke:#1700b3;stroke-width:2;stroke-linecap:butt;stroke-linejoin:miter;stroke-miterlimit:10;stroke-dasharray:none;stroke-opacity:1"
     d="m 136.24025,33.593755 0,8.983147"
     id="path4518-3-87"
     inkscape:connector-curvature="0" />
  <path
     style="fill:#1700b3;fill-opacity:1;fill-rule:evenodd;stroke:#1700b3;stroke-width:2;stroke-linecap:butt;stroke-linejoin:miter;stroke-miterlimit:10;stroke-dasharray:none;stroke-opacity:1"
     d="m 173.32063,33.593757 0,8.983147"
     id="path4518-3-3"
     inkscape:connector-curvature="0" />
  <circle
     style="fill:#1700b3;fill-opacity:1;fill-rule:evenodd;stroke:#1700b3;stroke-width:0;stroke-linecap:butt;stroke-linejoin:miter;stroke-miterlimit:10;stroke-dasharray:none;stroke-opacity:1"
     id="path4494"
     r="3.999999"
     cy="42.5769"
     cx="18.125013" />
  <circle
     style="fill:#1700b3;fill-opacity:1;fill-rule:evenodd;stroke:#1700b3;stroke-width:0;stroke-linecap:butt;stroke-linejoin:miter;stroke-miterlimit:10;stroke-dasharray:none;stroke-opacity:1"
     id="path4494-8"
     r="3.999999"
     cy="42.5769"
     cx="40.320324" />
  <circle
     style="fill:#1700b3;fill-opacity:1;fill-rule:evenodd;stroke:#1700b3;stroke-width:0;stroke-linecap:butt;stroke-linejoin:miter;stroke-miterlimit:10;stroke-dasharray:none;stroke-opacity:1"
     id="path4494-3"
     r="3.999999"
     cy="42.5769"
     cx="83.214279" />
  <circle
     style="fill:#1700b3;fill-opacity:1;fill-rule:evenodd;stroke:#1700b3;stroke-width:0;stroke-linecap:butt;stroke-linejoin:miter;stroke-miterlimit:10;stroke-dasharray:none;stroke-opacity:1"
     id="path4494-33"
     r="3.999999"
     cy="42.5769"
     cx="117.50002" />
  <circle
     style="fill:#1700b3;fill-opacity:1;fill-rule:evenodd;stroke:#1700b3;stroke-width:0;stroke-linecap:butt;stroke-linejoin:miter;stroke-miterlimit:10;stroke-dasharray:none;stroke-opacity:1"
     id="path4494-80"
     r="3.999999"
     cy="42.5769"
     cx="136.24023" />
  <circle
     style="fill:#1700b3;fill-opacity:1;fill-rule:evenodd;stroke:#1700b3;stroke-width:0;stroke-linecap:butt;stroke-linejoin:miter;stroke-miterlimit:10;stroke-dasharray:none;stroke-opacity:1"
     id="path4494-4"
     r="3.999999"
     cy="42.576904"
     cx="173.32062" />
</svg>
